PathFileType	4	(X/Y/Z)	DARI_DATA/Captury_Subj7_bilateral_squat01.trc
DataRate	CameraRate	NumFrames	NumMarkers	Units	OrigDataRate	OrigDataStartFrame	OrigNumFrames
60	60	7	47	mm	60.00239944458008	224	357
Frame#	Time		LeftUpLeg_		RightUpLeg_		LeftLeg_		RightLeg_		LeftFoot_		RightFoot_		LeftToeBase_		RightToeBase_		Knee_Lateral_r		Knee_Lateral_l		Ankle_Lateral_r		Ankle_Lateral_l		LeftArm_		LeftForeArm_		LeftHand_		LeftHandEE		RightArm_		RightForeArm_		RightHand_		RightHandEE		Spine_		Spine1_		Spine2_		Spine3_		Spine4_		Spine5_		Spine_x		Spine_y		Spine_z		RASI		LASI		RIPS		LIPS		RTHI		LTHI		RTIB		LTIB		RTOE		LTOE		RHEE		LHEE		RHipAngles		LHipAngles		RKneeAngles		LKneeAngles		RAnkleAngles		LAnkleAngles
			X1	Y1	Z1	X2	Y2	Z2	X3	Y3	Z3	X4	Y4	Z4	X5	Y5	Z5	X6	Y6	Z6	X7	Y7	Z7	X8	Y8	Z8	X9	Y9	Z9	X10	Y10	Z10	X11	Y11	Z11	X12	Y12	Z12	X13	Y13	Z13	X14	Y14	Z14	X15	Y15	Z15	X16	Y16	Z16	X17	Y17	Z17	X18	Y18	Z18	X19	Y19	Z19	X20	Y20	Z20	X21	Y21	Z21	X22	Y22	Z22	X23	Y23	Z23	X24	Y24	Z24	X25	Y25	Z25	X26	Y26	Z26	X27	Y27	Z27	X28	Y28	Z28	X29	Y29	Z29	X30	Y30	Z30	X31	Y31	Z31	X32	Y32	Z32	X33	Y33	Z33	X34	Y34	Z34	X35	Y35	Z35	X36	Y36	Z36	X37	Y37	Z37	X38	Y38	Z38	X39	Y39	Z39	X40	Y40	Z40	X41	Y41	Z41	X42	Y42	Z42	X43	Y43	Z43	X44	Y44	Z44	X45	Y45	Z45	X46	Y46	Z46	X47	Y47	Z47

224	3.71667	-131.15399	420.82208	208.12448	43.94604	424.93958	224.57954	-359.25125	437.28836	-153.27151	257.30682	427.63651	-146.06377	-276.89661	89.67850	14.65021	179.94800	87.43784	38.57935	-315.16885	26.67190	-100.69122	211.09906	25.80668	-79.61310	301.03055	426.29663	-123.79052	-402.05115	435.50421	-129.29982	215.81462	88.17075	77.41556	-310.77414	90.30698	55.23494	-188.10806	823.77716	-102.57766	-302.38068	829.15424	-383.09787	-324.04608	841.92938	-640.45526	-335.58194	856.90009	-732.91345	97.92445	813.79425	-90.01782	198.93051	812.95685	-375.63269	226.64879	829.50287	-632.19336	240.83009	846.49139	-723.93213	-42.98964	516.17377	186.47060	-39.30120	586.68835	120.24610	-39.53647	648.69012	90.57841	-42.25577	735.13123	67.05574	-43.99834	834.22968	-22.22886	-0.00000	0.00000	-0.00000	5.93192	517.32416	191.06801	-41.75265	559.10181	162.56598	-47.56451	540.08270	229.16966	114.01253	436.48660	112.12782	-179.51683	429.58429	84.54336	-7.33951	505.68262	230.11075	-85.61400	503.84201	222.75488	203.19147	421.23639	85.06599	-295.91785	422.83847	75.13705	263.82648	266.69580	-58.34595	-350.32150	219.28146	-51.67702	237.92682	22.28222	-151.88782	-346.18756	26.94956	-171.35626	147.51074	26.35142	87.04441	-243.90598	28.65550	62.82074	-119.27046	21.62568	2.95862	-121.46915	34.61063	-0.43391	-115.15618	0.30073	-1.36088	-114.83420	0.16197	-0.71151	-18.70620	-5.76583	-9.50119	-15.98387	-5.72011	-7.21510
225	3.73333	-131.80031	420.35806	207.93019	43.28313	424.41098	224.57710	-359.72894	437.35837	-153.54747	257.13824	427.79749	-145.77553	-276.91693	89.86942	14.39931	179.80255	87.41907	38.54546	-315.07239	26.46548	-100.76295	210.99744	25.55735	-79.51491	300.83298	426.45218	-123.44575	-402.54095	435.61905	-129.59407	215.63438	88.20119	77.41280	-310.78461	90.52087	54.99191	-188.36824	823.74780	-102.92304	-302.45563	829.11200	-383.51892	-324.14536	841.71307	-640.88287	-336.03668	856.30536	-733.35651	97.64814	813.63153	-90.11050	198.92426	812.81915	-375.62979	226.68375	829.09924	-632.20300	241.22206	846.56525	-723.79608	-43.56694	515.64532	186.27379	-39.77885	586.15088	119.99646	-39.96228	648.17389	90.29456	-42.62933	734.64545	66.75515	-44.28111	833.79523	-22.52492	-0.00000	0.00000	-0.00000	5.34998	516.77765	190.92480	-42.28300	558.54736	162.32495	-48.17841	539.60181	228.94228	113.48097	435.80560	112.19178	-180.02052	429.01151	84.28568	-7.97066	505.18390	229.96500	-86.23773	503.37213	222.52336	202.71754	421.01764	85.27168	-296.50763	422.68292	74.87779	263.66843	266.79779	-58.16698	-350.51379	219.37854	-51.92055	237.90424	21.94421	-151.75584	-346.12128	26.54658	-171.41524	147.24879	26.44980	87.07983	-243.77043	29.05279	62.72355	-119.42278	21.64159	2.90927	-121.55992	34.64711	-0.49662	-115.19753	0.32557	-1.36931	-114.93982	0.04684	-0.70761	-18.54366	-5.76613	-9.53316	-15.82357	-5.71975	-7.20767
226	3.75000	-132.13484	420.10690	208.04539	42.95129	424.29593	224.63019	-359.65149	437.51797	-153.67207	256.96347	427.95300	-145.62906	-277.05099	89.88550	14.08167	179.79272	87.40817	38.45360	-315.04712	26.54699	-101.16921	211.03677	25.43763	-79.53664	300.64990	426.65182	-123.28046	-402.49063	435.74146	-129.77002	215.60640	88.22813	77.33689	-310.97592	90.50377	54.62694	-188.86250	823.60077	-103.16350	-302.66595	829.05054	-383.87299	-324.15048	841.44257	-641.26428	-336.73035	855.54462	-733.72290	97.14806	813.52606	-90.23627	198.55453	812.51050	-375.70865	226.38329	828.71881	-632.27893	241.55284	846.59387	-723.69055	-43.98675	515.47369	186.39175	-40.26108	586.05273	120.06717	-40.47543	648.13983	90.30367	-43.16573	734.66986	66.67548	-44.81208	833.83386	-22.71540	-0.00000	0.00000	-0.00000	4.93092	516.64404	191.02542	-42.74635	558.38550	162.45813	-48.60215	539.41083	229.07065	113.09899	435.78857	112.22356	-180.40701	428.76633	84.42161	-8.36610	505.02521	230.06619	-86.63437	503.15262	222.65234	202.44971	421.08871	85.39369	-296.68976	422.56903	74.80708	263.57144	266.90738	-58.11076	-350.56378	219.44861	-52.22596	237.99329	21.83080	-151.75937	-346.00323	26.73355	-171.86197	147.20952	26.48578	87.02706	-243.98376	29.03898	62.42257	-119.41104	21.68697	2.89313	-121.60543	34.55782	-0.53404	-115.18073	0.29871	-1.37710	-114.95544	0.06639	-0.71418	-18.44660	-5.76677	-9.54160	-15.80855	-5.72013	-7.18680
227	3.76667	-132.20099	419.85434	208.18896	42.93951	424.25150	224.13310	-360.21722	437.41306	-153.20673	257.23792	427.89380	-145.96077	-276.94287	89.69492	14.03558	179.76773	87.50092	38.27708	-315.08380	26.71070	-101.36156	211.07127	25.44752	-79.65383	300.90704	426.59335	-123.57834	-403.02286	435.58698	-129.24843	215.55450	88.32569	77.18504	-310.80573	90.18167	54.63451	-189.48468	823.57184	-103.32952	-303.07123	828.79852	-384.13110	-324.20499	841.27332	-641.54749	-337.44815	854.43573	-734.05200	96.50684	813.34692	-90.30958	197.76147	812.11841	-375.83502	225.83957	828.25006	-632.38300	241.54568	846.78674	-723.57196	-44.25841	515.36542	186.33678	-40.80355	586.04889	120.02331	-41.09043	648.20068	90.25840	-43.75308	734.78705	66.61947	-45.37815	834.00323	-22.80254	-0.00000	0.00000	-0.00000	4.67445	516.59393	190.79144	-43.16257	558.31042	162.45570	-48.74756	539.24005	229.06415	112.65665	435.98495	111.48374	-180.94052	428.61371	84.75575	-8.46312	504.90604	229.86557	-86.75569	502.94037	222.73810	202.54550	421.03854	85.02007	-296.93713	422.31531	75.17474	263.70392	266.89874	-58.33891	-350.71219	219.24101	-52.01991	238.09125	21.86369	-151.85397	-346.16376	27.18189	-171.99866	147.13342	26.61872	86.86665	-243.76294	28.71055	62.12494	-119.33309	21.94124	2.95966	-121.57256	34.42309	-0.56129	-115.22305	0.29067	-1.38436	-114.95606	0.03137	-0.72354	-18.44996	-5.76756	-9.53123	-15.93697	-5.72053	-7.21312
228	3.78333	-132.58461	419.50742	208.14159	42.55775	424.07550	224.01732	-360.48932	436.84943	-153.33492	257.30716	427.88184	-145.81343	-276.94315	89.28384	14.08884	179.79834	87.37558	38.19855	-315.04318	26.65541	-101.51530	211.31424	25.60448	-79.82401	300.94919	426.58264	-123.37813	-403.30188	434.99780	-129.39093	215.54140	88.16409	77.14742	-310.81467	89.68568	54.68146	-190.05562	823.52301	-103.14307	-303.23611	828.76129	-384.10837	-324.40787	840.90448	-641.53748	-338.08173	853.15833	-734.10413	95.97308	813.30609	-90.59306	197.28136	811.92468	-376.09879	225.29482	827.83716	-632.66760	240.52235	846.61249	-723.88892	-44.75805	515.15027	186.39919	-41.38253	585.92859	120.11711	-41.70364	648.12964	90.35013	-44.38024	734.75171	66.67934	-45.97429	833.97363	-22.80482	-0.00000	0.00000	-0.00000	4.17533	516.42657	190.83475	-43.72040	558.13324	162.58400	-49.25542	538.95386	229.16530	112.21321	436.06067	111.35629	-181.38707	428.40298	84.74294	-8.93235	504.66367	229.89642	-87.22576	502.62161	222.79953	202.33414	420.93979	85.09822	-297.27692	421.83298	75.07065	263.75436	266.85223	-58.25363	-350.81229	218.73039	-52.05019	238.43059	22.27278	-152.00012	-346.13480	27.41659	-172.14474	147.19794	26.34965	86.63032	-243.72659	28.16234	61.97837	-119.26144	22.03426	3.00528	-121.47213	34.38078	-0.57496	-115.21213	0.30453	-1.38967	-114.97704	0.02611	-0.72691	-18.55491	-5.76833	-9.52145	-16.14284	-5.71945	-7.29873
229	3.80000	-132.75670	419.35593	207.79849	42.35104	424.31888	223.93529	-361.45047	436.07333	-153.20877	257.34991	427.83636	-145.75334	-276.79953	88.82495	14.31822	179.91483	87.26257	38.16470	-314.95212	26.39822	-101.37759	211.66486	25.89817	-80.00713	300.97723	426.57910	-123.28709	-404.20782	434.06061	-129.17932	215.61966	88.01082	77.14940	-310.60626	89.11176	54.96579	-190.60620	823.29614	-103.06674	-303.68829	828.49298	-384.07242	-324.56754	840.05200	-641.55225	-338.69638	852.87347	-733.97357	95.41673	812.88336	-90.66881	196.19339	811.77362	-376.36377	224.65874	827.72595	-632.88025	239.34814	845.97528	-724.29633	-45.13064	515.24963	186.35428	-41.80989	586.05219	120.12464	-42.20096	648.22852	90.35377	-44.97059	734.80634	66.60501	-46.57354	833.87573	-23.01763	-0.00000	0.00000	-0.00000	3.79306	516.63623	190.86278	-44.16273	558.27771	162.61763	-49.74717	538.96552	229.15642	112.13940	436.67456	111.39661	-181.40283	428.35492	84.34564	-9.34234	504.77161	229.88434	-87.62027	502.55304	222.67075	202.22307	421.10870	85.12798	-297.72467	421.16907	75.06143	263.83151	266.80371	-58.20172	-351.08554	218.04532	-51.79616	238.87321	22.91720	-152.16394	-346.18112	27.28906	-171.94485	147.39264	26.03068	86.38865	-243.33627	27.66562	61.98721	-119.08862	21.98630	3.10410	-121.40631	34.58372	-0.51558	-115.14828	0.28591	-1.39009	-115.00727	0.11433	-0.72138	-18.73403	-5.76895	-9.52244	-16.31374	-5.71685	-7.39536
230	3.81667	-132.65663	419.64001	208.12381	42.47145	424.88739	223.94711	-361.76605	436.35880	-152.61987	257.45807	427.73395	-145.75449	-276.81433	88.86160	14.23779	180.08090	87.13446	38.14043	-315.18622	26.74699	-101.55349	211.99109	26.22652	-80.22432	301.08594	426.50555	-123.28766	-404.49570	434.34552	-128.54123	215.76959	87.82136	77.14107	-310.54788	89.06464	54.94664	-191.26810	823.10565	-103.16162	-304.49268	828.03937	-384.11465	-325.12997	839.44098	-641.62109	-338.13754	852.49139	-734.17487	94.73555	812.63885	-90.80647	195.00665	811.45514	-376.67896	223.56274	827.43549	-633.18359	239.04909	845.95941	-724.41272	-45.20452	515.61096	186.31804	-42.08266	586.29266	119.98437	-42.58051	648.41290	90.15366	-45.45002	734.94952	66.35298	-47.19759	833.95013	-23.30717	-0.00000	0.00000	-0.00000	3.72486	517.07703	190.73895	-44.33892	558.58813	162.48547	-49.78104	539.41412	229.07600	112.04793	437.09528	111.26118	-181.52843	428.29880	84.73575	-9.32629	505.27942	229.80908	-87.61331	502.93369	222.73563	202.33794	421.40872	85.13982	-297.77734	421.45300	75.57675	263.96692	266.70258	-58.20247	-351.21878	218.17912	-51.55280	239.25284	23.63757	-152.37613	-346.56216	27.90481	-172.05170	147.65623	25.68002	86.14647	-243.25981	27.57426	61.67768	-119.11126	22.08418	3.19951	-121.52401	34.54330	-0.60603	-115.04700	0.26337	-1.38476	-114.93130	0.06273	-0.70999	-18.94613	-5.76923	-9.52485	-16.37812	-5.71476	-7.42846
